<?xml version="1.0" standalone="no"?>
<!DOCTYPE svg PUBLIC "-//W3C//DTD SVG 20010904//EN"
 "http://www.w3.org/TR/2001/REC-SVG-20010904/DTD/svg10.dtd">
<svg version="1.0" xmlns="http://www.w3.org/2000/svg"
 width="128.000000pt" height="128.000000pt" viewBox="0 0 128.000000 128.000000"
 preserveAspectRatio="xMidYMid meet">

<g transform="translate(0.000000,128.000000) scale(0.100000,-0.100000)"
fill="#000000" stroke="none">
<path d="M282 998 c-32 -32 -14 -60 135 -210 l148 -148 -148 -148 c-112 -112
-147 -153 -147 -173 0 -32 17 -49 50 -49 36 0 370 334 370 370 0 19 -41 66
-173 198 -175 175 -202 193 -235 160z"/>
<path d="M607 992 c-10 -10 -17 -27 -17 -38 0 -11 61 -79 147 -166 l148 -148
-148 -148 c-112 -112 -147 -153 -147 -173 0 -32 17 -49 50 -49 36 0 370 334
370 370 0 19 -41 66 -173 198 -177 177 -197 190 -230 154z"/>
</g>
</svg>
