<?xml version="1.0" standalone="no"?>
<!DOCTYPE svg PUBLIC "-//W3C//DTD SVG 20010904//EN"
 "http://www.w3.org/TR/2001/REC-SVG-20010904/DTD/svg10.dtd">
<svg version="1.0" xmlns="http://www.w3.org/2000/svg"
 width="512.000000pt" height="512.000000pt" viewBox="0 0 512.000000 512.000000"
 preserveAspectRatio="xMidYMid meet">

<g transform="translate(0.000000,512.000000) scale(0.100000,-0.100000)"
fill="#000000" stroke="none">
<path d="M1575 4789 c-314 -41 -601 -184 -830 -414 -210 -209 -342 -456 -402
-752 -17 -81 -18 -166 -18 -1063 0 -897 1 -982 18 -1063 60 -296 192 -543 402
-752 206 -207 432 -329 733 -398 96 -22 103 -22 1077 -22 905 0 987 1 1069 18
297 60 543 192 751 401 207 208 330 433 398 734 22 96 22 103 22 1077 0 901
-1 987 -18 1068 -60 295 -192 542 -402 753 -203 204 -433 329 -727 397 -91 20
-114 21 -1048 23 -534 1 -986 -2 -1025 -7z m242 -1279 c15 -6 189 -172 385
-368 l358 -357 362 362 c392 391 385 385 475 368 49 -9 109 -69 118 -118 17
-90 23 -83 -368 -474 l-362 -363 362 -362 c391 -392 385 -385 368 -475 -9 -49
-69 -109 -118 -118 -90 -17 -83 -23 -474 368 l-363 362 -362 -362 c-392 -391
-385 -385 -475 -368 -49 9 -109 69 -118 118 -17 90 -23 83 368 475 l362 362
-362 363 c-315 315 -362 367 -368 400 -24 129 92 231 212 187z"/>
</g>
</svg>
