<?xml version="1.0" encoding="UTF-8"?>
<svg version="1.1" xmlns="http://www.w3.org/2000/svg" width="512" height="512">
<path d="M0 0 C1.01790619 0.00215515 2.03581238 0.0043103 3.08456421 0.00653076 C17.69363523 0.05620146 32.02575853 0.30709809 46.375 3.3125 C47.34985352 3.51117676 48.32470703 3.70985352 49.32910156 3.91455078 C97.7109774 14.03517194 141.69928269 35.9516877 177.375 70.3125 C178.3640332 71.26068604 178.3640332 71.26068604 179.37304688 72.22802734 C188.86130305 81.37247479 197.6012044 90.66984009 205.375 101.3125 C206.23306152 102.46355017 207.09113451 103.61459177 207.94921875 104.765625 C213.98736829 112.95680614 219.34595521 121.47054105 224.375 130.3125 C224.73948242 130.94430176 225.10396484 131.57610352 225.47949219 132.22705078 C247.08534998 169.97532572 256.85198095 212.74189997 256.6875 255.9375 C256.68534485 256.95540619 256.6831897 257.97331238 256.68096924 259.02206421 C256.63129854 273.63113523 256.38040191 287.96325853 253.375 302.3125 C253.07698486 303.77478027 253.07698486 303.77478027 252.77294922 305.26660156 C242.65232806 353.6484774 220.7358123 397.63678269 186.375 433.3125 C185.74287598 433.97185547 185.11075195 434.63121094 184.45947266 435.31054688 C175.31502521 444.79880305 166.01765991 453.5387044 155.375 461.3125 C154.22394983 462.17056152 153.07290823 463.02863451 151.921875 463.88671875 C143.73224019 469.92427396 135.22961724 475.30707302 126.375 480.3125 C125.66778809 480.7146875 124.96057617 481.116875 124.23193359 481.53125 C101.09654164 494.5566741 75.92537591 503.30551461 49.9375 508.625 C49.21860596 508.77235596 48.49971191 508.91971191 47.7590332 509.0715332 C33.08339502 511.86090125 18.55831162 512.66142619 3.64770508 512.62817383 C0.70811513 512.6250221 -2.2304558 512.64854926 -5.16992188 512.67382812 C-18.54306192 512.71848737 -31.43916711 511.51301542 -44.625 509.3125 C-46.33055054 509.03031616 -46.33055054 509.03031616 -48.07055664 508.74243164 C-91.33802759 500.97044532 -132.38793216 480.98345309 -165.625 452.3125 C-166.37007813 451.67828125 -167.11515625 451.0440625 -167.8828125 450.390625 C-181.38779833 438.57948485 -194.05918743 425.82889772 -204.625 411.3125 C-205.48149066 410.16255169 -206.33826433 409.01281411 -207.1953125 407.86328125 C-213.23534209 399.67315742 -218.61867614 391.16870382 -223.625 382.3125 C-224.0271875 381.60528809 -224.429375 380.89807617 -224.84375 380.16943359 C-237.8691741 357.03404164 -246.61801461 331.86287591 -251.9375 305.875 C-252.08485596 305.15610596 -252.23221191 304.43721191 -252.3840332 303.6965332 C-255.35789088 288.05024391 -255.99800362 272.57681954 -255.9375 256.6875 C-255.93534485 255.66959381 -255.9331897 254.65168762 -255.93096924 253.60293579 C-255.88129854 238.99386477 -255.63040191 224.66174147 -252.625 210.3125 C-252.42632324 209.33764648 -252.22764648 208.36279297 -252.02294922 207.35839844 C-241.90232806 158.9765226 -219.9858123 114.98821731 -185.625 79.3125 C-184.99287598 78.65314453 -184.36075195 77.99378906 -183.70947266 77.31445312 C-174.56502521 67.82619695 -165.26765991 59.0862956 -154.625 51.3125 C-153.47394983 50.45443848 -152.32290823 49.59636549 -151.171875 48.73828125 C-142.98224019 42.70072604 -134.47961724 37.31792698 -125.625 32.3125 C-124.91778809 31.9103125 -124.21057617 31.508125 -123.48193359 31.09375 C-100.34654164 18.0683259 -75.17537591 9.31948539 -49.1875 4 C-48.46860596 3.85264404 -47.74971191 3.70528809 -47.0090332 3.5534668 C-31.36274391 0.57960912 -15.88931954 -0.06050362 0 0 Z " fill="#000000" transform="translate(255.625,-0.3125)"/>
<path d="M0 0 C7.05735056 5.32433252 12.42390652 11.4135382 14.328125 20.2421875 C15.40341547 30.68077656 12.67047557 39.27072644 6.07421875 47.4296875 C-2.60600665 56.44003333 -15.02223533 59.83211638 -27.21484375 60.41015625 C-42.47746542 60.49194951 -57.16005272 58.66904406 -68.796875 47.8046875 C-75.52572384 40.27721267 -77.23095105 31.99177026 -77.01171875 22.11328125 C-76.32416403 14.28147982 -72.54761762 8.11434558 -66.80859375 2.8359375 C-48.59507412 -10.74928373 -19.28618525 -12.68827977 0 0 Z " fill="#F9F9F9" transform="translate(231.671875,229.7578125)"/>
<path d="M0 0 C0 -0.99 0 -1.98 0 -3 C2.64 -3 5.28 -3 8 -3 C8 3.6 8 10.2 8 17 C5.36 17 2.72 17 0 17 C-0.474375 15.9275 -0.94875 14.855 -1.4375 13.75 C-4.58073306 8.29070047 -9.54403238 7.01988926 -15.31640625 5.31640625 C-25.34842817 2.9199595 -37.55238117 2.25667071 -47 7 C-49.20896722 9.68549908 -49.20896722 9.68549908 -48.9375 12.0625 C-48.15220686 14.17883784 -48.15220686 14.17883784 -45.96508789 15.05371094 C-42.22398387 16.24766064 -38.50750617 16.67202599 -34.62109375 17.078125 C-32.96017824 17.2712068 -31.29937414 17.46524889 -29.63867188 17.66015625 C-27.04868205 17.95728421 -24.45859383 18.24777707 -21.8659668 18.52099609 C1.79977124 21.04745821 1.79977124 21.04745821 9.23266602 29.55566406 C12.7933789 34.48035772 13.33223497 37.93272813 12.46875 43.859375 C11.20507554 49.63015504 7.60375065 52.56975442 3 56 C-5.19538641 60.91723185 -14.209249 61.41427049 -23.5625 61.4375 C-24.60937988 61.44064209 -25.65625977 61.44378418 -26.73486328 61.44702148 C-36.46929539 61.2984441 -45.26633803 59.36683099 -54 55 C-54 56.65 -54 58.3 -54 60 C-57.3 60 -60.6 60 -64 60 C-64 52.08 -64 44.16 -64 36 C-61.03 36 -58.06 36 -55 36 C-54.608125 37.0725 -54.21625 38.145 -53.8125 39.25 C-51.74084554 43.95142587 -49.18344797 46.07926893 -44.40625 48.09375 C-32.38271276 52.61873713 -20.16253068 54.11859399 -8 49 C-7.01 48.34 -6.02 47.68 -5 47 C-4.33319632 44.04279372 -4.33319632 44.04279372 -5 41 C-8.89730611 37.94602432 -12.4710606 37.43803659 -17.3203125 36.9375 C-18.369272 36.82136353 -18.369272 36.82136353 -19.43942261 36.70288086 C-21.66689552 36.45717795 -23.89555928 36.22709951 -26.125 36 C-54.18206663 33.10052302 -54.18206663 33.10052302 -62 26 C-65.81216614 20.96750873 -66.79860488 16.1891878 -66 10 C-63.04068629 3.83476311 -57.80140523 -0.46516033 -51.50390625 -3.0078125 C-33.28063438 -8.72165421 -17.62834732 -5.80069305 0 0 Z " fill="#FAFAFA" transform="translate(128,228)"/>
<path d="M0 0 C28.35587227 -2.60427425 28.35587227 -2.60427425 36.33984375 3.09375 C39.72909648 6.10468349 42.58842691 9.46336074 45.36401367 13.03881836 C48.20105913 16.43980122 51.62669312 19.15021749 55 22 C56.1065904 22.99954684 57.20730233 24.00565746 58.30078125 25.01953125 C59.05391602 25.7165918 59.05391602 25.7165918 59.82226562 26.42773438 C60.83597602 27.36970117 61.84897039 28.31243899 62.86132812 29.25585938 C65.16567703 31.38640823 67.3809172 33.2539448 70 35 C70.02886537 30.68751391 70.04675255 26.37505238 70.0625 22.0625 C70.07506836 20.21495117 70.07506836 20.21495117 70.08789062 18.33007812 C70.09272461 16.5753418 70.09272461 16.5753418 70.09765625 14.78515625 C70.10551147 13.15912476 70.10551147 13.15912476 70.11352539 11.50024414 C70.28426897 9.05950052 70.28426897 9.05950052 69 8 C67.31816052 7.76712992 65.6287584 7.58735834 63.9375 7.4375 C63.01839844 7.35371094 62.09929687 7.26992187 61.15234375 7.18359375 C60.08693359 7.09271484 60.08693359 7.09271484 59 7 C59 4.69 59 2.38 59 0 C70.88 0 82.76 0 95 0 C95 2.31 95 4.62 95 7 C93.93458984 7.09087891 93.93458984 7.09087891 92.84765625 7.18359375 C91.92855469 7.26738281 91.00945312 7.35117188 90.0625 7.4375 C89.14597656 7.51871094 88.22945313 7.59992188 87.28515625 7.68359375 C85.03840268 7.76044976 85.03840268 7.76044976 84 9 C83.87727151 10.59513893 83.82218957 12.19554932 83.79467773 13.79516602 C83.77473251 14.81614883 83.75478729 15.83713165 83.73423767 16.88905334 C83.71752518 17.9994548 83.70081268 19.10985626 83.68359375 20.25390625 C83.6524221 21.94978127 83.6524221 21.94978127 83.62062073 23.67991638 C83.55500203 27.30737985 83.49618323 30.93491833 83.4375 34.5625 C83.39432649 37.01498186 83.3507126 39.467456 83.30664062 41.91992188 C83.19930816 47.94653427 83.0975651 53.97322201 83 60 C81.08661766 60.07967717 79.17227286 60.13645579 77.2578125 60.18359375 C76.19191895 60.21767334 75.12602539 60.25175293 74.02783203 60.28686523 C68.83818344 59.79518348 66.41474016 56.65000769 63 53 C61.38693369 51.52847759 59.76125326 50.07069581 58.125 48.625 C55.55627299 46.30841797 52.98908226 43.99014095 50.421875 41.671875 C41.77818279 33.87664338 33.02012287 26.38010053 24 19 C24.33 29.89 24.66 40.78 25 52 C28.3 52.33 31.6 52.66 35 53 C35 55.31 35 57.62 35 60 C23.78 60 12.56 60 1 60 C1 57.69 1 55.38 1 53 C1.63808594 52.93941406 2.27617187 52.87882812 2.93359375 52.81640625 C3.75988281 52.73261719 4.58617187 52.64882813 5.4375 52.5625 C6.26121094 52.48128906 7.08492188 52.40007812 7.93359375 52.31640625 C9.98662025 52.21069185 9.98662025 52.21069185 11 51 C11.08874135 47.89748799 11.11518455 44.8173188 11.09765625 41.71484375 C11.09553383 40.31861534 11.09553383 40.31861534 11.09336853 38.8941803 C11.08775172 35.90858809 11.0751964 32.92306971 11.0625 29.9375 C11.05748716 27.91862087 11.05292388 25.89974057 11.04882812 23.88085938 C11.03777683 18.92054428 11.02050095 13.96028468 11 9 C8.70370006 7.85185003 6.92301914 7.69230191 4.375 7.4375 C3.55773437 7.35371094 2.74046875 7.26992187 1.8984375 7.18359375 C1.27195312 7.12300781 0.64546875 7.06242188 0 7 C0 4.69 0 2.38 0 0 Z " fill="#FBFBFB" transform="translate(255,226)"/>
<path d="M0 0 C13.86 0 27.72 0 42 0 C42 2.31 42 4.62 42 7 C40.02 7 38.04 7 36 7 C38.2377361 12.02535957 41.10219887 15.78544361 44.6875 19.875 C45.19861328 20.46796875 45.70972656 21.0609375 46.23632812 21.671875 C47.48536912 23.11936176 48.74191954 24.56036293 50 26 C51.94632412 23.96616673 53.88187267 21.92364723 55.8125 19.875 C56.35970703 19.30523437 56.90691406 18.73546875 57.47070312 18.1484375 C60.73901473 14.66223845 63.07605934 11.44194018 65 7 C63.02 7 61.04 7 59 7 C59 4.69 59 2.38 59 0 C70.22 0 81.44 0 93 0 C93 2.31 93 4.62 93 7 C92.28714844 6.99097656 91.57429688 6.98195312 90.83984375 6.97265625 C85.85852676 7.12685583 82.03241997 7.25216556 78.375 10.875 C77.21745336 12.22271502 76.09532234 13.60124377 75 15 C73.95585937 16.26650391 73.95585937 16.26650391 72.890625 17.55859375 C71.35851011 19.42090582 69.84719103 21.30049142 68.35546875 23.1953125 C66 26 66 26 63.42578125 28.3671875 C59.51800251 32.01117584 56.87462098 34.74265183 56.4375 40.18359375 C56.34706205 44.1528149 56.60323214 48.05191484 57 52 C60.3 52.33 63.6 52.66 67 53 C67 55.31 67 57.62 67 60 C53.47 60 39.94 60 26 60 C26 57.69 26 55.38 26 53 C30.95 52.505 30.95 52.505 36 52 C37.37333993 42.83578757 37.37333993 42.83578757 34.96728516 34.14355469 C32.20878953 30.56942415 28.90565329 27.56100289 25.58203125 24.52148438 C22.37161948 21.43394022 19.77096364 17.8452617 17.03515625 14.33984375 C14.14718867 11.0195125 11.70499364 8.38829052 7.32421875 7.390625 C6.01904297 7.32101563 6.01904297 7.32101563 4.6875 7.25 C3.80449219 7.19328125 2.92148437 7.1365625 2.01171875 7.078125 C1.34785156 7.05234375 0.68398438 7.0265625 0 7 C0 4.69 0 2.38 0 0 Z " fill="#FCFCFC" transform="translate(357,226)"/>
<path d="M0 0 C4.44487103 3.45607557 7.61468259 7.2455045 9.03125 12.74609375 C10.06912693 21.33790976 10.2207801 29.33831672 5.015625 36.6875 C-1.23164036 43.16842292 -8.27949184 45.84498446 -17.09375 46.12109375 C-24.6329771 46.04493994 -30.11760018 44.10769062 -35.8125 39.13671875 C-40.96779158 33.62763265 -43.0827443 27.79096757 -43.40625 20.30859375 C-43.14140911 12.64939513 -40.81631239 7.13809143 -35.21875 1.87109375 C-25.09964226 -6.14606698 -11.04633446 -7.03546302 0 0 Z " fill="#020202" transform="translate(216.96875,235.25390625)"/>
</svg>
