<?xml version="1.0" standalone="no"?>
<!DOCTYPE svg PUBLIC "-//W3C//DTD SVG 20010904//EN"
 "http://www.w3.org/TR/2001/REC-SVG-20010904/DTD/svg10.dtd">
<svg version="1.0" xmlns="http://www.w3.org/2000/svg"
 width="512.000000pt" height="512.000000pt" viewBox="0 0 512.000000 512.000000"
 preserveAspectRatio="xMidYMid meet">

<g transform="translate(0.000000,512.000000) scale(0.100000,-0.100000)"
fill="#000000" stroke="none">
<path d="M2354 5110 c-500 -42 -969 -226 -1374 -538 -109 -85 -347 -323 -432
-432 -436 -566 -618 -1251 -518 -1950 64 -440 239 -850 519 -1210 81 -105 311
-337 410 -415 563 -442 1238 -630 1940 -539 451 58 890 246 1261 538 97 76
320 299 396 396 292 370 476 804 540 1270 23 169 23 491 0 659 -40 295 -111
528 -241 796 -340 699 -985 1205 -1750 1374 -216 48 -535 69 -751 51z m-742
-1259 l33 -29 3 -164 c2 -149 1 -166 -18 -196 -11 -18 -32 -37 -47 -43 -17 -6
-97 -9 -201 -7 l-174 3 -24 28 c-23 27 -24 33 -24 203 l0 176 29 29 29 29 181
0 181 0 32 -29z m2319 0 l29 -29 0 -166 c0 -107 -4 -174 -12 -191 -26 -57 15
-55 -1019 -55 l-951 0 -34 34 -34 34 0 164 c1 174 6 199 51 224 19 11 206 13
982 14 l959 0 29 -29z m-2341 -706 c51 -27 60 -58 60 -219 0 -153 -5 -182 -41
-215 -21 -20 -34 -21 -210 -21 l-187 0 -26 31 c-26 30 -26 32 -26 200 0 97 4
179 10 189 22 42 56 49 228 50 127 0 170 -3 192 -15z m2341 -23 l29 -32 0
-169 c0 -168 0 -170 -26 -200 l-26 -31 -965 0 c-642 0 -971 3 -984 10 -41 22
-49 60 -49 228 0 148 2 161 21 186 12 15 31 32 43 36 11 5 450 8 974 7 l954
-2 29 -33z m-2322 -713 c36 -33 41 -62 41 -215 0 -227 -7 -234 -250 -234 -170
0 -208 8 -230 49 -6 11 -10 92 -10 190 0 168 0 170 26 200 l26 31 187 0 c176
0 189 -1 210 -21z m2322 -8 l29 -29 0 -171 0 -171 -29 -32 -29 -33 -967 0
-967 0 -29 33 -29 32 0 161 c0 167 8 205 47 228 12 7 346 10 981 11 l964 0 29
-29z m-2347 -701 c14 -5 35 -24 46 -42 19 -30 20 -47 18 -196 l-3 -164 -33
-29 -32 -29 -181 0 -181 0 -29 29 -29 29 0 174 c0 186 5 209 54 228 29 12 339
12 370 0z m2325 -4 c45 -24 51 -52 51 -232 l0 -166 -29 -29 -29 -29 -956 0
c-719 0 -962 3 -981 12 -48 22 -55 52 -55 229 l0 161 34 34 34 34 951 0 c804
0 956 -2 980 -14z"/>
</g>
</svg>
