<?xml version="1.0" standalone="no"?>
<!DOCTYPE svg PUBLIC "-//W3C//DTD SVG 20010904//EN"
 "http://www.w3.org/TR/2001/REC-SVG-20010904/DTD/svg10.dtd">
<svg version="1.0" xmlns="http://www.w3.org/2000/svg"
 width="149.000000pt" height="162.000000pt" viewBox="0 0 149.000000 162.000000"
 preserveAspectRatio="xMidYMid meet">

<g transform="translate(0.000000,162.000000) scale(0.100000,-0.100000)"
fill="#000000" stroke="none">
<path d="M736 1398 c-14 -19 -16 -65 -16 -300 l0 -278 -285 0 -285 0 -16 -25
c-15 -23 -15 -27 0 -50 l16 -25 285 0 285 0 0 -279 c0 -259 1 -280 19 -302 16
-20 23 -22 47 -14 l29 10 3 293 2 292 281 0 c174 0 288 4 300 10 26 14 26 66
0 80 -12 6 -126 10 -300 10 l-281 0 0 290 c0 276 -1 290 -19 300 -30 16 -48
12 -65 -12z"/>
</g>
</svg>
